<?xml version="1.0" standalone="no"?>
<!DOCTYPE svg PUBLIC "-//W3C//DTD SVG 20010904//EN"
 "http://www.w3.org/TR/2001/REC-SVG-20010904/DTD/svg10.dtd">
<svg version="1.0" xmlns="http://www.w3.org/2000/svg"
 width="1280.000000pt" height="1280.000000pt" viewBox="0 0 1280.000000 1280.000000"
 preserveAspectRatio="xMidYMid meet">
<metadata>
Created by potrace 1.15, written by Peter Selinger 2001-2017
</metadata>
<g transform="translate(0.000000,1280.000000) scale(0.100000,-0.100000)"
fill="#000000" stroke="none">
<path d="M5940 12794 c-419 -22 -1060 -141 -1465 -271 -898 -288 -1664 -736
-2440 -1428 -394 -350 -877 -957 -1194 -1500 -215 -368 -429 -850 -564 -1270
-99 -309 -220 -904 -259 -1275 -21 -199 -17 -1140 5 -1336 45 -393 164 -956
272 -1280 228 -685 537 -1274 969 -1849 103 -137 259 -332 337 -421 247 -280
225 -258 501 -504 345 -310 649 -532 1073 -787 254 -153 337 -197 510 -274
603 -266 897 -361 1470 -474 955 -188 1872 -161 2873 86 299 74 636 195 1037
372 202 89 276 128 511 268 643 382 1125 771 1558 1254 321 359 547 668 821
1125 167 280 289 539 443 940 90 236 138 382 186 577 269 1073 285 2014 55
3085 -78 362 -129 529 -285 921 -171 430 -270 627 -519 1027 -296 474 -730
1004 -1076 1311 -678 602 -1289 988 -2029 1282 -359 142 -611 216 -1005 297
-540 110 -649 121 -1245 125 -261 1 -504 1 -540 -1z m440 -409 l0 -265 -304 0
c-167 0 -311 -3 -320 -6 -48 -18 26 -24 310 -24 l314 0 0 -295 0 -295 -144 0
c-79 0 -151 -3 -160 -6 -44 -17 -1 -24 144 -24 l160 0 0 -304 0 -304 -315 -4
c-283 -3 -339 -7 -323 -23 2 -3 147 -8 321 -11 l317 -7 0 -284 0 -283 -32 0
c-181 0 -561 -39 -748 -76 -462 -92 -1012 -329 -1405 -607 -344 -243 -633
-522 -880 -852 -155 -206 -229 -326 -349 -565 -176 -348 -298 -698 -350 -1001
-31 -179 -65 -545 -66 -701 l0 -28 -288 0 -289 0 -7 312 c-3 171 -9 314 -11
317 -16 15 -20 -42 -23 -320 l-4 -309 -296 2 -297 3 -3 153 c-2 139 -10 178
-26 136 -3 -9 -6 -78 -6 -155 l0 -139 -300 0 -300 0 0 299 c0 165 -3 307 -6
316 -18 45 -24 -33 -24 -312 l0 -303 -260 0 c-241 0 -260 1 -260 18 0 91 23
479 36 602 34 337 137 861 230 1173 41 138 125 371 196 547 251 616 588 1161
1079 1745 189 224 401 435 634 629 705 587 1341 946 2157 1216 341 113 931
233 1333 270 110 10 366 25 508 28 l57 2 0 -265z m275 255 c376 -17 608 -46
1005 -126 289 -58 486 -109 685 -177 694 -236 1217 -512 1804 -952 225 -169
278 -212 495 -408 160 -145 366 -363 551 -582 205 -243 537 -737 715 -1064
179 -328 381 -831 489 -1212 105 -372 193 -890 221 -1294 21 -313 25 -396 21
-401 -2 -2 -123 -4 -268 -4 l-263 0 -1 288 c-1 270 -7 359 -23 322 -3 -8 -7
-148 -8 -310 l-3 -295 -296 -3 -297 -2 -3 149 c-4 134 -9 174 -23 160 -3 -3
-7 -72 -11 -154 l-5 -150 -303 0 -302 0 -3 308 c-2 283 -10 364 -26 270 -3
-21 -6 -161 -6 -311 l0 -272 -292 2 -293 3 -12 175 c-32 461 -80 706 -215
1100 -202 585 -558 1120 -1033 1553 -139 127 -369 303 -536 409 -136 87 -427
237 -584 301 -213 87 -465 168 -645 205 -168 36 -597 82 -757 82 l-23 0 0 283
0 284 307 6 c169 4 309 9 311 12 16 15 -37 19 -313 23 l-305 5 0 303 0 304
149 0 c137 0 186 8 145 24 -9 3 -78 6 -155 6 l-139 0 0 295 0 295 304 0 c276
0 357 7 293 24 -12 3 -151 6 -309 6 l-288 0 0 265 c0 205 3 265 13 265 6 0
111 -5 232 -10z m-275 -2735 l0 -315 -314 0 c-285 0 -368 -7 -303 -24 12 -3
156 -6 320 -6 l297 0 0 -295 0 -294 -155 -3 c-95 -2 -155 -7 -155 -13 0 -6 60
-11 155 -13 l155 -3 0 -304 0 -305 -297 0 c-164 0 -308 -3 -320 -6 -65 -17 18
-24 303 -24 l314 0 0 -300 0 -300 -137 0 c-148 0 -183 -5 -183 -25 0 -17 68
-25 207 -25 l113 0 -2 -297 -3 -298 -65 -6 c-178 -17 -369 -130 -461 -273 -52
-79 -100 -207 -108 -286 l-6 -65 -292 -3 -293 -2 0 124 c0 138 -6 186 -25 186
-19 0 -25 -48 -25 -186 l0 -124 -302 2 -303 3 -3 300 c-1 165 -5 307 -8 315
-16 37 -22 -52 -23 -327 l-1 -293 -300 0 -299 0 -3 150 c-2 92 -7 150 -13 150
-6 0 -11 -58 -13 -150 l-3 -150 -299 0 -300 0 -1 298 c0 275 -7 362 -23 322
-3 -8 -7 -150 -8 -315 l-3 -300 -305 0 -305 0 3 110 c8 282 58 637 122 863
102 360 291 785 475 1069 479 735 1167 1271 1990 1549 247 84 339 109 515 138
154 26 420 54 560 59 47 2 95 4 108 5 l22 2 0 -315z m325 294 c530 -42 963
-173 1479 -446 172 -91 293 -170 496 -321 120 -90 202 -163 366 -326 231 -231
337 -358 479 -571 224 -338 345 -589 478 -1000 60 -186 97 -340 122 -510 25
-170 45 -389 45 -502 l0 -103 -300 0 -300 0 0 294 c0 162 -3 301 -6 310 -18
47 -24 -25 -24 -300 l0 -304 -295 0 -294 0 -3 152 c-3 135 -5 153 -20 156 -16
3 -18 -11 -20 -150 l-3 -153 -296 -3 -297 -2 -4 304 c-2 168 -7 308 -11 312
-4 4 -10 4 -14 1 -3 -4 -8 -144 -11 -312 l-5 -305 -296 2 -296 3 -3 153 c-2
141 -11 184 -26 130 -3 -13 -6 -83 -6 -156 l0 -134 -283 4 c-308 3 -317 5
-317 58 0 40 -37 153 -77 239 -79 166 -291 309 -488 330 l-60 6 -3 298 -2 297
117 0 c137 0 193 8 193 25 0 20 -35 25 -177 25 l-133 0 0 300 0 300 304 0
c279 0 367 7 285 24 -18 3 -157 6 -310 6 l-279 0 0 305 0 304 150 3 c92 2 150
7 150 13 0 6 -58 11 -150 13 l-150 3 0 294 0 295 279 0 c153 0 292 3 310 6 82
17 -6 24 -285 24 l-304 0 0 315 0 314 83 -5 c45 -2 141 -9 212 -15z m-325
-3479 l0 -300 -305 0 -305 0 0 36 c0 95 96 300 180 384 86 86 287 179 388 180
l42 0 0 -300z m151 284 c30 -9 96 -36 148 -62 114 -55 190 -127 243 -229 41
-77 88 -219 88 -264 l0 -29 -300 0 -300 0 0 300 0 300 33 0 c18 0 58 -7 88
-16z m-5861 -913 c0 -165 3 -307 6 -316 18 -45 24 33 24 313 l0 302 300 0 300
0 0 -144 c0 -79 3 -151 6 -160 16 -42 24 9 24 150 l0 154 299 0 299 0 4 -309
c3 -278 7 -335 23 -320 2 3 8 146 11 317 l7 312 288 0 287 0 6 -107 c33 -564
108 -903 297 -1346 227 -532 501 -920 945 -1337 257 -243 539 -437 899 -618
144 -73 273 -124 477 -192 361 -120 584 -160 1103 -198 l100 -7 3 -302 2 -303
-267 0 c-148 0 -292 -3 -320 -6 -123 -15 -33 -24 265 -26 l317 -3 3 -293 2
-292 -113 0 c-243 0 -286 -28 -49 -32 l157 -3 0 -310 0 -310 -305 -3 c-168 -1
-312 -5 -320 -8 -37 -16 53 -22 333 -23 l297 -1 0 -256 0 -257 -147 7 c-400
19 -711 57 -1083 132 -295 59 -485 106 -645 159 -758 250 -1414 605 -2040
1106 -435 348 -761 694 -1129 1198 -340 468 -588 928 -794 1476 -113 302 -164
474 -231 790 -104 489 -134 723 -156 1228 l-6 137 260 0 261 0 0 -299z m2530
-10 c0 -283 7 -372 24 -290 3 18 6 159 6 315 l0 284 300 0 299 0 3 -157 c2
-97 7 -158 13 -158 6 0 11 61 13 158 l3 157 299 0 300 0 0 -284 c0 -156 3
-297 6 -315 17 -82 24 7 24 290 l0 309 305 0 305 0 0 -122 c0 -141 7 -198 25
-198 19 0 25 49 25 191 l0 129 293 -2 292 -3 6 -60 c6 -69 29 -144 70 -230 84
-178 254 -299 481 -343 l88 -17 0 -287 0 -288 -144 0 c-79 0 -151 -3 -160 -6
-44 -17 -1 -24 144 -24 l160 0 0 -309 0 -308 -315 -5 c-174 -3 -318 -8 -322
-12 -18 -17 32 -21 323 -25 l314 -3 -2 -287 -3 -286 -157 -3 c-126 -2 -158 -5
-158 -16 0 -22 24 -26 176 -26 l144 0 0 -305 0 -305 -314 0 c-284 0 -358 -6
-310 -24 9 -3 153 -6 320 -6 l304 0 0 -290 0 -290 -97 0 c-109 0 -331 20 -498
45 -438 64 -944 249 -1351 492 -515 308 -1000 792 -1300 1296 -83 139 -223
419 -275 550 -106 266 -192 565 -223 777 -20 137 -44 379 -49 503 l-4 97 308
0 309 0 0 -309z m3180 5 c0 -168 -4 -307 -8 -310 -14 -8 -142 24 -217 55 -94
39 -203 115 -244 171 -66 88 -141 275 -141 350 l0 38 305 0 305 0 0 -304z
m630 268 c0 -42 -48 -191 -86 -266 -15 -29 -59 -85 -98 -124 -95 -95 -201
-146 -388 -188 l-28 -6 0 310 0 310 300 0 300 0 0 -36z m630 -101 c0 -140 5
-183 21 -183 5 0 9 72 9 160 l0 160 299 0 298 0 5 -315 c3 -173 8 -318 11
-322 4 -3 10 -3 14 1 4 4 9 148 11 321 l4 315 299 0 299 0 0 -160 c0 -130 3
-160 14 -160 22 0 26 24 26 176 l0 144 295 0 295 0 0 -314 c0 -284 6 -358 24
-310 3 9 6 153 6 320 l0 304 300 0 300 0 0 -84 c0 -186 -55 -596 -106 -792
-73 -281 -209 -632 -337 -868 -167 -308 -328 -536 -556 -783 -329 -358 -674
-618 -1130 -848 -197 -100 -564 -232 -806 -291 -182 -44 -579 -94 -747 -94
l-78 0 0 290 0 290 294 0 c162 0 302 3 311 6 45 18 -33 24 -307 24 l-298 0 0
305 0 305 139 0 c147 0 171 4 171 26 0 11 -32 14 -152 16 l-153 3 -3 286 -2
287 304 3 c280 4 331 8 313 25 -4 4 -144 9 -312 12 l-305 5 0 308 0 309 155 0
c141 0 183 7 139 24 -9 3 -78 6 -155 6 l-139 0 0 289 0 289 47 7 c71 10 220
62 281 96 149 86 260 257 301 466 l16 83 293 0 292 0 0 -137z m3160 -137 c0
-274 5 -366 21 -366 5 0 9 144 9 320 l0 320 305 -2 305 -3 5 -155 c3 -85 8
-156 10 -159 15 -14 20 27 24 165 l3 154 299 0 299 0 0 -314 c0 -287 7 -377
24 -295 3 18 6 161 6 320 l0 289 271 0 c253 0 270 -1 265 -17 -2 -10 -7 -74
-11 -143 -49 -1002 -256 -1817 -671 -2641 -204 -404 -571 -949 -870 -1289
-453 -515 -921 -900 -1568 -1289 -346 -208 -724 -379 -1174 -532 -521 -176
-1106 -278 -1814 -315 l-128 -6 0 256 0 256 279 0 c153 0 292 3 310 6 82 17
-6 24 -285 24 l-304 0 2 313 3 312 153 3 c228 4 185 32 -49 32 l-109 0 0 295
0 295 310 0 c171 0 310 4 310 9 0 15 -100 21 -362 21 l-258 0 0 304 0 303 68
6 c37 4 99 7 139 7 94 0 465 53 623 90 264 60 625 192 870 316 252 128 548
326 755 505 123 107 376 364 471 479 172 207 348 479 468 720 94 190 128 272
203 495 119 354 171 632 199 1078 l7 107 293 0 294 0 0 -274z"/>
</g>
</svg>
