<svg width="20" height="20" viewBox="0 0 20 20" fill="none" xmlns="http://www.w3.org/2000/svg">
<rect width="20" height="20"/>
<path fill-rule="evenodd" clip-rule="evenodd" d="M1 6.13095C1 4.44476 2.29803 3 3.99242 3H11.5227C13.2235 3 14.5 4.45159 14.5 6.13095V7.16271L17.8589 5.11004C18.0904 4.96857 18.3802 4.96315 18.6169 5.09585C18.8535 5.22856 19 5.47871 19 5.75V14.25C19 14.5213 18.8535 14.7714 18.6169 14.9041C18.3802 15.0369 18.0904 15.0314 17.8589 14.89L14.5 12.8373V13.869C14.5 15.5484 13.2235 17 11.5227 17H3.99242C2.29803 17 1 15.5552 1 13.869V6.13095ZM3.99242 4.5C3.2099 4.5 2.5 5.18721 2.5 6.13095V13.869C2.5 14.8128 3.2099 15.5 3.99242 15.5H11.5227C12.2988 15.5 13 14.8196 13 13.869V11.5C13 11.2287 13.1465 10.9786 13.3831 10.8459C13.6198 10.7131 13.9096 10.7186 14.1411 10.86L17.5 12.9127V7.08729L14.1411 9.13996C13.9096 9.28143 13.6198 9.28685 13.3831 9.15415C13.1465 9.02144 13 8.77129 13 8.5V6.13095C13 5.18039 12.2989 4.5 11.5227 4.5H3.99242Z" fill="white"/>
</svg>
